# xmcd
#
# Track frame offsets:
# 150
# 13610
# 26211
# 38447
# 50555
# 63663
# 76240
# 88211
# 100200
# 113686
# 127834
# 140261
# 154699
# 165354
# 180581
# 193178
# 204384
# 219176
# 232308
# 243487
# 255510
# 268924
# 281470
# 293924
# 305901
# 317627
# 328774
#
# Disc length: 4683 seconds
#
# Revision: 1
# Processed by: cddbd v1.5.2PL0 Copyright (c) Steve Scherf et al.
# Submitted via: CedeCatalogueitor 2.6.0.6 http://personales.ya.com/cdcatalogueitor
#
DISCID=8412491b
DTITLE=Big Joe Turner - Flip, Flop And Fly
DYEAR=2006
DGENRE=
TTITLE0=Shake, Rattle and Roll
TTITLE1=Tv Mama
TTITLE2=Hide And Seek
TTITLE3=Morning, Noon And Night
TTITLE4=Ti-ri-lee
TTITLE5=Flip, Flop and Fly
TTITLE6=The Chicken and The Hawk
TTITLE7=Boogie Woogie County Girl
TTITLE8=Oka-She-Moke-She-Pop
TTITLE9=You Know I Love You
TTITLE10=The Chill Is On
TTITLE11=After The Laughter Came Tears
TTITLE12=Bump Miss Susie
TTITLE13=Chains Of Love
TTITLE14=Married Woman
TTITLE15=Midnight Cannoball
TTITLE16=I'll Never Stop Loving You
TTITLE17=Sweet Sixteen
TTITLE18=Don't You Cry
TTITLE19=Poor Lover's Blues
TTITLE20=Still In Love
TTITLE21=Baby I Still Want You
TTITLE22=Oka-She-Moke-She-Pop
TTITLE23=Honey Hush
TTITLE24=Crawdad Hole
TTITLE25=Well, All Right
TTITLE26=In The Evening (when The Sun Goes Down)
EXTD=
EXTT0=
EXTT1=
EXTT2=
EXTT3=
EXTT4=
EXTT5=
EXTT6=
EXTT7=
EXTT8=
EXTT9=
EXTT10=
EXTT11=
EXTT12=
EXTT13=
EXTT14=
EXTT15=
EXTT16=
EXTT17=
EXTT18=
EXTT19=
EXTT20=
EXTT21=
EXTT22=
EXTT23=
EXTT24=
EXTT25=
EXTT26=
PLAYORDER=
